<?xml version="1.0" encoding="UTF-8" ?>
<!DOCTYPE svg PUBLIC "-//W3C//DTD SVG 1.1//EN" "http://www.w3.org/Graphics/SVG/1.1/DTD/svg11.dtd">
<svg width="305pt" height="379pt" viewBox="0 0 305 379" version="1.1" xmlns="http://www.w3.org/2000/svg">
<g id="#ccccccff">
<path fill="#cccccc" opacity="1.00" d=" M 147.35 1.77 C 150.03 -0.18 153.48 0.94 156.51 1.06 C 158.02 2.50 159.47 4.01 160.93 5.51 C 161.47 7.30 161.19 9.22 161.29 11.06 C 171.25 10.43 180.97 7.09 191.02 8.34 C 192.18 8.66 193.35 8.97 194.52 9.28 C 196.05 9.79 197.62 10.14 199.19 10.52 C 202.17 14.38 202.35 19.25 202.00 23.92 C 211.19 23.96 220.28 25.43 229.49 24.98 C 231.73 28.43 235.91 28.18 239.45 29.16 C 241.59 30.46 244.04 30.92 246.49 31.17 C 248.19 31.96 249.98 32.57 251.55 33.62 C 255.52 34.87 258.69 37.73 262.52 39.30 C 264.61 40.58 267.04 41.30 268.73 43.19 C 273.66 47.94 278.30 53.03 283.75 57.22 C 285.34 60.36 286.87 63.55 288.93 66.42 C 289.12 66.92 289.51 67.92 289.70 68.43 C 290.51 70.24 291.58 71.92 292.88 73.42 C 294.16 77.55 294.99 82.29 297.95 85.55 C 299.41 99.23 302.80 113.21 300.02 126.94 C 299.82 130.10 298.98 133.19 298.80 136.36 C 297.66 138.91 298.21 141.77 298.00 144.47 C 295.83 145.71 295.40 148.29 294.55 150.43 C 292.08 157.71 288.07 164.28 283.40 170.34 C 283.02 171.79 282.52 173.20 282.00 174.61 C 279.93 175.24 278.58 176.98 277.05 178.39 C 277.05 179.06 277.05 180.39 277.05 181.05 C 276.53 181.04 275.51 181.01 275.00 181.00 C 275.00 181.43 275.01 182.31 275.01 182.75 C 273.56 183.10 272.15 183.57 270.76 184.10 C 270.03 185.09 269.09 185.87 268.01 186.45 C 267.70 186.80 267.09 187.48 266.78 187.83 C 266.24 187.89 265.14 188.02 264.60 188.09 C 263.66 190.81 260.78 191.32 258.62 192.70 C 253.08 196.43 246.79 198.67 240.82 201.57 C 240.80 205.40 243.60 208.16 245.53 211.18 C 246.70 212.79 247.90 214.54 249.76 215.43 C 252.38 220.23 255.03 225.04 258.72 229.13 C 261.40 231.98 262.50 236.16 265.75 238.45 C 266.32 241.36 268.92 243.13 270.28 245.65 C 274.24 251.01 277.73 256.79 282.73 261.28 C 284.81 266.08 287.75 270.42 290.92 274.55 C 292.62 277.28 295.41 279.24 296.46 282.36 C 299.73 285.53 301.26 290.13 304.17 293.67 C 303.28 295.94 302.45 298.23 301.83 300.59 C 301.03 301.36 300.26 302.16 299.52 302.99 C 297.00 303.31 294.47 303.51 291.93 303.46 C 272.38 303.34 252.82 303.74 233.28 303.04 C 232.38 301.80 231.62 300.44 230.37 299.53 C 226.68 294.38 222.89 289.31 219.55 283.94 C 218.69 283.55 217.83 283.16 216.98 282.79 C 216.90 282.22 216.76 281.09 216.68 280.52 C 213.17 275.59 210.03 270.43 206.50 265.52 C 205.40 262.68 202.44 261.14 201.56 258.19 C 200.81 257.37 200.06 256.55 199.33 255.74 C 197.99 255.24 196.75 254.57 196.53 253.00 L 196.15 253.00 C 196.16 248.90 192.67 246.30 190.88 242.97 C 189.47 240.52 186.81 238.93 186.03 236.11 C 185.09 235.01 184.16 233.90 183.25 232.78 C 182.38 231.29 181.39 229.89 180.56 228.38 C 179.69 227.20 178.86 225.97 178.08 224.73 C 177.01 224.98 175.77 225.15 175.47 226.44 C 173.69 230.40 171.90 234.39 170.80 238.60 C 170.55 239.11 170.05 240.13 169.80 240.64 C 167.75 241.27 166.57 243.10 165.67 244.91 C 162.59 248.54 159.26 252.13 157.74 256.75 C 156.54 257.91 155.51 259.24 154.65 260.68 C 153.44 261.90 152.30 263.18 151.12 264.42 C 151.09 264.99 151.03 266.11 151.00 266.67 C 148.95 267.07 147.56 268.55 146.40 270.17 C 145.34 272.46 143.52 274.25 142.02 276.24 C 140.91 278.89 138.49 280.74 137.71 283.56 C 135.54 284.38 135.32 286.73 134.86 288.68 C 134.52 289.03 133.82 289.71 133.48 290.06 C 132.30 292.94 130.39 295.47 129.43 298.46 C 128.03 304.65 125.02 310.51 125.15 316.97 L 126.37 317.08 C 122.34 323.70 124.82 331.53 124.00 338.77 C 121.41 338.88 119.76 341.24 117.21 341.39 C 115.22 341.94 113.21 341.44 111.23 341.11 C 110.96 340.59 110.41 339.54 110.14 339.01 C 109.31 339.02 107.67 339.03 106.84 339.04 C 107.79 342.89 109.56 346.49 110.30 350.41 C 111.39 354.21 113.00 357.82 114.72 361.38 C 115.24 363.28 116.43 364.84 117.45 366.49 C 117.91 368.63 117.56 370.85 117.02 372.95 C 115.23 374.56 113.33 376.05 111.30 377.35 C 108.98 377.24 106.67 377.20 104.36 377.10 C 101.58 374.08 98.79 370.97 95.34 368.70 C 94.32 367.02 92.94 365.58 91.20 364.62 C 90.76 363.14 90.06 361.82 88.32 361.79 C 87.76 360.62 87.07 359.52 86.26 358.52 C 85.45 356.20 84.69 353.44 82.07 352.59 C 81.80 350.29 81.90 347.31 79.08 346.64 C 78.58 342.16 76.32 338.20 75.06 333.94 C 74.08 328.94 72.00 324.15 71.83 319.00 C 71.38 319.00 70.46 319.00 70.00 319.00 C 69.98 318.49 69.93 317.48 69.91 316.97 L 70.87 317.02 C 70.50 310.60 69.86 304.09 70.89 297.70 C 70.58 297.15 69.96 296.06 69.65 295.52 C 67.58 294.37 67.00 291.84 65.10 290.49 C 63.82 288.51 63.99 286.17 63.81 283.92 C 62.86 278.79 62.55 273.57 62.27 268.37 C 62.30 264.78 62.99 261.25 63.17 257.67 C 64.43 253.80 64.47 249.62 65.15 245.62 C 66.85 242.43 67.73 238.90 68.65 235.42 C 69.21 231.05 72.33 227.65 73.21 223.37 C 74.02 221.70 74.78 219.99 75.82 218.44 C 76.47 216.68 77.00 214.87 77.15 212.99 C 72.59 212.33 68.86 215.30 64.59 216.24 C 59.14 218.07 52.98 221.79 47.28 218.84 C 44.00 216.29 41.00 212.98 39.63 208.99 C 38.98 208.99 37.66 209.00 37.01 209.00 C 37.10 206.52 37.04 204.01 35.91 201.74 C 34.09 198.92 33.75 195.51 32.50 192.45 C 32.25 191.24 32.07 190.03 31.89 188.82 C 34.25 186.04 35.25 182.06 34.39 178.51 C 33.72 175.80 34.15 172.98 33.86 170.22 C 32.64 167.58 30.41 165.06 27.32 164.87 C 25.47 163.86 23.50 163.11 21.39 162.89 C 20.68 160.98 19.11 159.69 17.37 158.74 C 16.00 156.90 14.40 155.25 12.91 153.51 C 11.80 151.80 10.52 150.20 9.59 148.38 C 8.52 146.70 7.40 144.90 5.18 144.74 C 2.88 139.31 -0.05 133.71 1.01 127.63 C 2.09 125.54 3.13 123.42 4.24 121.35 C 4.96 120.64 5.65 119.91 6.33 119.17 C 8.15 118.79 9.97 118.24 11.51 117.15 C 12.85 116.64 14.21 116.17 15.58 115.75 C 16.87 114.88 18.19 114.05 19.45 113.14 C 21.58 112.63 23.77 112.19 25.65 111.03 C 26.90 110.43 28.16 109.87 29.40 109.25 C 30.84 108.78 32.28 108.28 33.46 107.30 C 34.91 106.80 36.26 106.08 37.48 105.15 C 39.58 104.92 41.75 104.63 43.48 103.29 C 44.87 102.66 46.25 101.98 47.54 101.13 C 51.12 100.01 54.26 97.97 57.45 96.06 C 61.26 93.45 64.18 89.95 66.89 86.28 C 66.85 85.39 66.82 84.50 66.78 83.61 C 66.50 83.07 65.93 82.00 65.65 81.46 C 62.44 77.90 65.14 73.13 64.64 68.93 C 63.90 60.01 68.57 52.14 72.47 44.52 C 74.27 41.70 76.56 39.23 78.37 36.42 C 79.87 35.21 81.27 33.88 82.51 32.40 C 83.39 31.85 84.26 31.28 85.08 30.63 C 86.26 29.65 87.42 28.64 88.67 27.74 C 89.65 26.86 90.61 25.97 91.51 25.00 C 92.54 24.93 93.57 24.87 94.60 24.80 C 95.02 24.35 95.85 23.45 96.27 23.00 C 96.84 22.98 97.99 22.92 98.56 22.90 C 98.95 22.47 99.72 21.60 100.11 21.17 C 101.79 20.93 103.51 20.59 104.51 19.07 C 107.79 18.76 111.05 18.30 114.32 18.01 C 114.57 17.54 115.05 16.61 115.29 16.15 C 119.86 15.16 122.94 11.59 126.62 9.02 C 127.61 8.93 128.60 8.83 129.60 8.74 C 129.98 8.35 130.75 7.56 131.13 7.16 C 136.85 6.21 141.56 2.35 147.35 1.77 M 106.54 37.52 C 98.24 48.61 92.77 62.08 92.43 76.03 C 92.15 71.86 91.87 67.62 92.74 63.50 C 95.47 49.90 102.06 37.19 111.05 26.68 C 97.79 30.21 85.26 38.20 78.41 50.35 C 71.97 61.53 70.25 75.94 76.28 87.67 C 84.88 83.97 92.92 78.58 102.33 77.11 C 94.05 80.65 85.49 83.84 78.16 89.22 C 70.65 93.88 65.74 101.87 57.67 105.71 C 44.23 112.63 30.01 117.85 16.41 124.39 C 13.88 125.82 10.87 126.80 9.18 129.31 C 7.94 132.78 10.37 135.99 12.34 138.61 C 17.08 144.52 20.58 151.75 27.13 155.93 C 29.98 157.97 33.36 155.92 36.33 155.34 C 36.97 157.99 37.00 160.97 38.76 163.20 C 40.13 164.77 42.34 164.51 44.15 164.07 C 46.89 159.88 43.94 154.32 46.21 150.01 C 49.53 147.33 53.91 146.34 57.85 144.87 C 62.14 143.24 67.61 145.13 69.60 149.37 C 71.96 153.92 75.02 158.97 73.42 164.29 C 72.72 169.96 68.33 174.11 63.37 176.39 C 60.19 177.79 56.69 181.25 53.08 179.15 C 49.98 176.03 48.85 170.94 44.31 169.37 C 43.48 170.24 42.66 171.12 41.84 172.01 C 41.95 176.76 45.55 180.55 45.43 185.36 C 43.73 186.28 41.14 186.83 40.75 189.11 C 40.01 191.16 41.37 193.12 42.14 194.93 C 44.86 200.10 47.29 205.41 50.04 210.57 C 51.05 210.95 52.06 211.34 53.07 211.73 C 58.45 209.38 64.27 208.12 69.52 205.46 C 72.79 203.67 73.02 199.48 74.57 196.45 C 76.18 192.17 79.89 187.64 84.90 188.04 C 88.86 190.94 88.23 196.52 88.07 200.85 C 100.33 184.15 122.36 178.32 134.56 161.52 C 142.05 151.93 143.67 139.33 143.35 127.53 C 145.15 135.49 145.94 143.92 143.82 151.89 C 141.42 161.47 135.54 169.80 128.42 176.49 C 118.96 186.17 107.03 192.93 97.24 202.22 C 87.89 212.66 80.75 225.27 76.86 238.74 C 76.49 238.11 76.13 237.48 75.79 236.85 L 75.19 238.92 C 75.49 238.91 76.10 238.89 76.40 238.88 C 71.66 254.15 69.59 270.61 73.27 286.34 C 77.54 272.30 84.07 258.87 93.33 247.44 C 103.03 235.30 115.31 225.61 127.92 216.68 C 139.72 208.71 151.47 200.66 163.33 192.79 C 146.52 210.69 124.66 222.91 107.88 240.88 C 92.69 256.59 81.98 276.82 78.70 298.51 C 77.30 309.76 79.50 321.13 82.74 331.89 C 87.49 346.50 95.81 360.76 108.98 369.24 C 101.02 352.88 96.15 335.05 94.65 316.92 C 93.29 299.54 94.74 281.09 103.56 265.67 C 107.14 259.10 112.83 254.00 119.00 249.91 C 112.38 260.31 109.53 272.53 107.89 284.60 C 105.92 301.25 106.92 319.04 115.47 333.88 C 115.42 323.31 116.26 312.60 119.50 302.48 C 124.06 287.07 133.40 273.65 143.17 261.10 C 156.38 244.46 168.94 226.57 174.52 205.78 C 195.28 235.42 215.97 265.10 236.48 294.91 C 256.10 295.15 275.74 295.23 295.35 294.87 C 271.93 262.52 248.81 229.94 225.60 197.44 C 238.32 194.17 250.66 188.92 261.29 181.13 C 276.24 170.25 286.77 153.69 290.38 135.55 C 294.52 115.44 292.93 93.71 283.95 75.07 C 284.35 73.85 284.60 72.58 284.69 71.29 C 284.13 72.10 283.62 72.94 283.09 73.76 C 276.11 58.59 262.43 47.25 247.22 40.87 C 227.63 32.67 205.99 31.22 185.01 32.22 C 188.64 27.66 192.58 23.10 194.40 17.45 C 182.02 15.40 169.17 17.78 157.76 22.80 C 137.85 31.71 122.34 49.31 114.70 69.59 C 114.47 68.54 114.24 67.50 114.02 66.45 L 115.04 67.22 C 117.36 60.55 120.20 54.01 124.16 48.13 C 129.51 39.72 136.73 32.76 143.69 25.70 C 147.81 20.98 151.24 15.47 152.67 9.31 C 134.61 12.76 117.71 22.85 106.54 37.52 Z" />
<path fill="#cccccc" opacity="1.00" d=" M 168.88 80.37 C 169.88 79.26 170.80 78.05 171.95 77.07 C 183.56 75.78 195.39 75.98 206.93 77.88 C 218.49 79.83 230.52 84.55 237.44 94.53 C 243.75 103.30 244.88 114.63 243.69 125.09 C 242.69 134.23 237.98 143.06 230.29 148.27 C 221.41 154.32 210.57 156.43 200.07 157.60 C 192.80 158.05 185.49 158.53 178.21 157.87 C 176.43 150.45 172.34 143.93 168.77 137.28 C 164.97 130.74 162.12 123.66 160.45 116.28 C 158.19 104.39 161.73 92.18 168.10 82.13 C 169.28 82.83 170.90 82.41 171.67 81.36 C 170.97 81.11 169.57 80.62 168.88 80.37 M 175.48 86.02 C 174.96 87.59 174.53 89.26 173.38 90.53 C 171.04 93.45 171.05 97.33 169.43 100.60 C 168.53 105.53 167.08 110.71 169.46 115.48 C 170.22 118.11 170.84 120.78 171.26 123.49 C 171.75 124.45 172.25 125.40 172.74 126.36 C 173.38 127.71 174.03 129.05 174.70 130.39 C 175.60 132.17 176.61 133.89 177.74 135.53 C 178.80 136.81 179.53 138.31 180.20 139.83 C 181.03 140.38 181.87 140.93 182.71 141.48 C 181.71 143.33 182.17 145.10 183.59 146.58 C 183.72 147.19 183.98 148.39 184.10 149.00 C 189.12 148.95 194.14 149.04 199.16 148.91 C 201.85 147.08 205.29 148.34 208.32 148.00 C 209.21 147.31 210.12 146.65 211.04 146.00 C 212.74 145.99 214.45 145.99 216.16 145.99 C 217.08 143.76 219.42 143.96 221.38 143.62 C 220.46 142.87 219.55 142.11 218.66 141.34 C 220.16 141.58 221.65 141.83 223.16 142.03 C 224.32 141.11 225.58 140.33 226.86 139.58 C 227.63 138.14 228.40 136.70 229.15 135.25 C 231.99 135.03 232.30 132.11 233.19 130.00 L 233.85 130.00 C 233.97 128.33 233.92 126.60 234.68 125.05 C 234.88 122.44 235.16 119.84 235.41 117.24 C 235.18 113.62 233.93 110.14 233.84 106.51 C 233.32 105.56 232.81 104.60 232.31 103.65 C 231.87 102.45 231.22 101.37 230.17 100.61 C 229.59 99.52 228.95 98.46 228.27 97.44 C 227.02 95.77 224.91 95.23 222.98 94.79 C 222.96 94.17 222.91 92.93 222.89 92.31 C 220.40 92.34 218.32 91.12 216.37 89.72 C 212.76 86.30 206.97 89.50 203.17 86.05 C 193.93 86.18 184.70 85.32 175.48 86.02 Z" />
<path fill="#cccccc" opacity="1.00" d=" M 81.05 98.54 C 85.67 97.73 90.41 98.41 95.07 98.08 C 94.21 100.13 93.62 102.53 91.64 103.84 C 87.81 106.56 82.50 105.83 78.80 108.84 C 77.28 110.38 76.37 112.39 75.32 114.26 C 74.86 110.57 74.59 106.85 75.01 103.14 C 75.45 103.81 75.88 104.50 76.30 105.19 L 76.87 103.21 C 76.51 103.10 75.77 102.89 75.41 102.78 C 76.75 100.78 78.50 98.83 81.05 98.54 Z" />
<path fill="#cccccc" opacity="1.00" d=" M 228.11 101.21 C 231.29 101.48 226.60 104.42 228.11 101.21 Z" />
<path fill="#cccccc" opacity="1.00" d=" M 29.10 179.28 C 32.36 179.34 27.66 182.42 29.10 179.28 Z" />
<path fill="#cccccc" opacity="1.00" d=" M 77.11 347.19 C 80.29 347.50 75.58 350.38 77.11 347.19 Z" />
</g>
<g id="#161616ff">
<path fill="#161616" opacity="1.00" d=" M 106.54 37.52 C 117.71 22.85 134.61 12.76 152.67 9.31 C 151.24 15.47 147.81 20.98 143.69 25.70 C 136.73 32.76 129.51 39.72 124.16 48.13 C 120.20 54.01 117.36 60.55 115.04 67.22 L 114.02 66.45 C 114.24 67.50 114.47 68.54 114.70 69.59 C 122.34 49.31 137.85 31.71 157.76 22.80 C 169.17 17.78 182.02 15.40 194.40 17.45 C 192.58 23.10 188.64 27.66 185.01 32.22 C 205.99 31.22 227.63 32.67 247.22 40.87 C 262.43 47.25 276.11 58.59 283.09 73.76 C 283.62 72.94 284.13 72.10 284.69 71.29 C 284.60 72.58 284.35 73.85 283.95 75.07 C 292.93 93.71 294.52 115.44 290.38 135.55 C 286.77 153.69 276.24 170.25 261.29 181.13 C 250.66 188.92 238.32 194.17 225.60 197.44 C 248.81 229.94 271.93 262.52 295.35 294.87 C 275.74 295.23 256.10 295.15 236.48 294.91 C 215.97 265.10 195.28 235.42 174.52 205.78 C 168.94 226.57 156.38 244.46 143.17 261.10 C 133.40 273.65 124.06 287.07 119.50 302.48 C 116.26 312.60 115.42 323.31 115.47 333.88 C 106.92 319.04 105.92 301.25 107.89 284.60 C 109.53 272.53 112.38 260.31 119.00 249.91 C 112.83 254.00 107.14 259.10 103.56 265.67 C 94.74 281.09 93.29 299.54 94.65 316.92 C 96.15 335.05 101.02 352.88 108.98 369.24 C 95.81 360.76 87.49 346.50 82.74 331.89 C 79.50 321.13 77.30 309.76 78.70 298.51 C 81.98 276.82 92.69 256.59 107.88 240.88 C 124.66 222.91 146.52 210.69 163.33 192.79 C 151.47 200.66 139.72 208.71 127.92 216.68 C 115.31 225.61 103.03 235.30 93.33 247.44 C 84.07 258.87 77.54 272.30 73.27 286.34 C 69.59 270.61 71.66 254.15 76.40 238.88 C 76.10 238.89 75.49 238.91 75.19 238.92 L 75.79 236.85 C 76.13 237.48 76.49 238.11 76.86 238.74 C 80.75 225.27 87.89 212.66 97.24 202.22 C 107.03 192.93 118.96 186.17 128.42 176.49 C 135.54 169.80 141.42 161.47 143.82 151.89 C 145.94 143.92 145.15 135.49 143.35 127.53 C 143.67 139.33 142.05 151.93 134.56 161.52 C 122.36 178.32 100.33 184.15 88.07 200.85 C 88.23 196.52 88.86 190.94 84.90 188.04 C 79.89 187.64 76.18 192.17 74.57 196.45 C 73.02 199.48 72.79 203.67 69.52 205.46 C 64.27 208.12 58.45 209.38 53.07 211.73 C 52.06 211.34 51.05 210.95 50.04 210.57 C 47.29 205.41 44.86 200.10 42.14 194.93 C 41.37 193.12 40.01 191.16 40.75 189.11 C 41.14 186.83 43.73 186.28 45.43 185.36 C 45.55 180.55 41.95 176.76 41.84 172.01 C 42.66 171.12 43.48 170.24 44.31 169.37 C 48.85 170.94 49.98 176.03 53.08 179.15 C 56.69 181.25 60.19 177.79 63.37 176.39 C 68.33 174.11 72.72 169.96 73.42 164.29 C 75.02 158.97 71.96 153.92 69.60 149.37 C 67.61 145.13 62.14 143.24 57.85 144.87 C 53.91 146.34 49.53 147.33 46.21 150.01 C 43.94 154.32 46.89 159.88 44.15 164.07 C 42.34 164.51 40.13 164.77 38.76 163.20 C 37.00 160.97 36.97 157.99 36.33 155.34 C 33.36 155.92 29.98 157.97 27.13 155.93 C 20.58 151.75 17.08 144.52 12.34 138.61 C 10.37 135.99 7.94 132.78 9.18 129.31 C 10.87 126.80 13.88 125.82 16.41 124.39 C 30.01 117.85 44.23 112.63 57.67 105.71 C 65.74 101.87 70.65 93.88 78.16 89.22 C 85.49 83.84 94.05 80.65 102.33 77.11 C 92.92 78.58 84.88 83.97 76.28 87.67 C 70.25 75.94 71.97 61.53 78.41 50.35 C 85.26 38.20 97.79 30.21 111.05 26.68 C 102.06 37.19 95.47 49.90 92.74 63.50 C 91.87 67.62 92.15 71.86 92.43 76.03 C 92.77 62.08 98.24 48.61 106.54 37.52 M 168.88 80.37 C 169.57 80.62 170.97 81.11 171.67 81.36 C 170.90 82.41 169.28 82.83 168.10 82.13 C 161.73 92.18 158.19 104.39 160.45 116.28 C 162.12 123.66 164.97 130.74 168.77 137.28 C 172.34 143.93 176.43 150.45 178.21 157.87 C 185.49 158.53 192.80 158.05 200.07 157.60 C 210.57 156.43 221.41 154.32 230.29 148.27 C 237.98 143.06 242.69 134.23 243.69 125.09 C 244.88 114.63 243.75 103.30 237.44 94.53 C 230.52 84.55 218.49 79.83 206.93 77.88 C 195.39 75.98 183.56 75.78 171.95 77.07 C 170.80 78.05 169.88 79.26 168.88 80.37 M 81.05 98.54 C 78.50 98.83 76.75 100.78 75.41 102.78 C 75.77 102.89 76.51 103.10 76.87 103.21 L 76.30 105.19 C 75.88 104.50 75.45 103.81 75.01 103.14 C 74.59 106.85 74.86 110.57 75.32 114.26 C 76.37 112.39 77.28 110.38 78.80 108.84 C 82.50 105.83 87.81 106.56 91.64 103.84 C 93.62 102.53 94.21 100.13 95.07 98.08 C 90.41 98.41 85.67 97.73 81.05 98.54 Z" />
<path fill="#161616" opacity="1.00" d=" M 219.32 293.31 C 219.87 293.82 219.87 293.82 219.32 293.31 Z" />
</g>
</svg>
