<?xml version="1.0" encoding="UTF-8" ?>
<!DOCTYPE svg PUBLIC "-//W3C//DTD SVG 1.1//EN" "http://www.w3.org/Graphics/SVG/1.1/DTD/svg11.dtd">
<svg width="296pt" height="99pt" viewBox="0 0 296 99" version="1.1" xmlns="http://www.w3.org/2000/svg">
<g id="#ffffffff">
<path fill="#ffffff" opacity="1.00" d=" M 30.77 6.94 C 36.43 2.84 45.72 5.66 47.60 12.56 C 48.77 15.46 47.82 18.52 47.27 21.44 L 46.68 21.40 C 46.18 22.30 45.67 23.20 45.16 24.10 C 44.67 24.43 43.68 25.10 43.19 25.44 L 42.27 25.30 L 42.74 26.23 C 38.16 27.45 32.69 27.51 29.25 23.72 C 24.17 19.30 25.07 10.41 30.77 6.94 M 34.32 9.47 C 29.38 11.12 28.28 18.41 32.52 21.43 C 36.46 24.96 43.50 22.28 44.13 17.04 C 45.22 11.77 39.11 7.32 34.32 9.47 Z" />
<path fill="#ffffff" opacity="1.00" d=" M 125.36 9.16 C 128.76 5.04 135.07 5.31 138.96 8.57 C 141.56 6.70 144.90 5.31 148.12 6.38 C 155.04 8.23 157.75 17.69 153.33 23.18 C 153.35 23.39 153.40 23.83 153.42 24.05 C 152.85 24.37 151.70 25.03 151.13 25.36 L 150.37 25.35 L 150.69 26.30 C 149.67 26.45 147.63 26.76 146.61 26.92 C 147.50 27.15 148.40 27.37 149.31 27.59 C 150.17 28.95 151.26 30.31 151.21 32.03 C 151.66 40.39 153.08 48.77 156.25 56.56 C 156.88 56.73 158.15 57.07 158.78 57.24 C 156.21 50.99 153.91 44.55 153.12 37.81 C 153.08 36.29 153.74 34.86 154.91 33.90 C 160.77 28.10 166.68 22.36 172.57 16.60 C 174.26 14.83 177.03 13.54 179.41 14.69 C 188.47 19.31 194.62 28.77 195.52 38.86 C 195.64 43.09 197.07 47.08 198.30 51.07 C 198.98 45.08 199.02 39.01 198.05 33.04 C 197.18 30.12 199.59 26.81 202.70 27.04 C 208.17 27.01 213.65 26.86 219.12 27.13 C 221.52 27.23 222.98 29.61 223.12 31.82 C 224.79 43.81 223.39 56.21 219.10 67.54 L 218.18 67.53 C 218.29 67.99 218.52 68.91 218.63 69.37 L 217.83 69.45 C 217.39 69.87 216.51 70.71 216.06 71.13 C 221.73 73.61 223.29 80.72 221.30 86.15 C 219.96 88.02 218.38 89.72 216.38 90.88 L 216.70 91.25 C 212.12 92.44 206.67 92.50 203.24 88.71 C 198.88 84.86 198.90 77.74 202.75 73.55 C 203.46 73.22 204.12 72.82 204.73 72.35 C 202.35 72.19 199.97 72.28 197.59 72.27 C 196.73 77.29 194.63 81.95 192.19 86.38 L 191.77 86.36 C 191.45 86.72 190.80 87.45 190.47 87.81 L 190.51 88.43 C 188.83 88.63 187.03 89.38 185.46 88.38 C 177.76 84.59 172.05 77.88 166.90 71.21 C 157.92 72.23 148.66 73.16 139.75 71.31 C 139.48 70.54 139.22 69.78 138.95 69.01 C 138.80 69.57 138.49 70.67 138.34 71.23 C 137.79 71.47 136.69 71.97 136.14 72.22 C 130.49 72.38 124.83 72.08 119.18 72.37 C 118.19 74.94 117.42 77.59 116.31 80.12 C 115.56 81.52 114.84 82.93 114.18 84.38 L 113.17 84.69 C 113.21 84.99 113.30 85.61 113.34 85.91 C 112.54 86.65 111.76 87.41 111.00 88.18 C 110.44 88.44 109.32 88.96 108.77 89.22 C 103.73 87.73 99.12 85.16 94.40 82.93 C 94.07 84.34 93.73 85.75 93.38 87.16 C 92.35 88.32 91.33 89.48 90.27 90.62 L 89.25 90.34 L 89.69 91.24 C 88.12 91.51 86.56 91.82 85.02 92.21 C 82.48 91.80 79.93 91.12 77.97 89.35 C 76.43 91.09 74.21 91.68 72.07 92.29 C 66.31 92.10 61.72 87.44 61.16 81.77 C 60.99 82.15 60.64 82.89 60.47 83.26 C 56.30 83.15 52.12 83.25 47.95 83.13 C 37.13 82.13 26.13 81.52 15.66 78.35 C 12.08 77.15 11.78 72.79 10.33 69.84 C 8.06 62.86 4.39 56.28 2.98 49.07 C 7.26 41.00 16.28 36.51 24.70 33.82 C 29.52 32.76 34.74 30.71 39.61 32.50 C 39.78 29.89 41.29 27.80 43.63 26.71 C 50.42 27.40 57.26 26.68 64.06 27.12 C 66.23 27.32 68.40 28.80 68.47 31.15 C 69.24 37.85 69.87 44.56 70.55 51.27 C 70.92 45.17 71.00 39.02 70.04 32.96 C 69.19 30.07 71.64 26.82 74.70 27.04 C 79.89 26.96 85.09 26.96 90.29 27.04 C 92.61 26.89 94.74 28.70 94.96 31.01 C 96.89 43.24 95.47 55.95 91.10 67.52 L 90.16 67.57 C 90.28 68.02 90.53 68.92 90.65 69.37 L 89.92 69.50 C 89.01 70.75 87.51 71.17 86.13 71.64 C 87.08 71.64 88.99 71.62 89.95 71.61 C 94.20 67.83 97.18 62.67 98.10 57.05 C 99.48 48.70 97.88 40.25 95.67 32.20 C 94.67 29.42 97.40 27.25 99.93 27.13 C 105.01 26.86 110.11 27.01 115.20 27.03 C 118.04 26.86 120.40 29.38 120.35 32.16 C 120.69 38.89 122.49 45.39 123.46 52.02 C 124.84 45.21 126.04 38.36 126.74 31.45 C 126.84 28.99 129.03 27.54 131.17 26.89 C 123.01 26.06 119.65 14.71 125.36 9.16 M 130.27 10.35 C 125.26 12.36 125.23 20.55 130.21 22.63 C 134.33 24.46 138.67 20.11 138.07 15.98 C 138.04 12.20 133.96 8.77 130.27 10.35 M 143.33 10.51 C 138.33 12.79 138.75 21.15 144.05 22.78 C 148.13 24.21 151.99 19.94 151.45 15.99 C 151.46 12.06 147.08 8.53 143.33 10.51 M 156.97 37.40 C 158.11 45.37 161.00 52.96 164.68 60.09 C 161.08 60.61 157.45 60.92 153.81 61.03 C 149.65 51.58 147.53 41.30 147.15 31.00 C 141.69 31.00 136.22 31.00 130.76 31.00 C 129.58 41.37 128.41 52.07 123.57 61.48 C 118.98 51.98 117.05 41.44 116.24 31.00 C 110.58 31.00 104.92 31.00 99.26 31.00 C 102.16 40.31 103.86 50.42 101.49 60.05 C 99.89 66.80 95.59 72.64 89.94 76.59 C 96.11 79.35 102.22 82.23 108.33 85.11 C 112.20 80.11 114.58 74.17 116.08 68.07 C 122.42 68.05 128.75 68.04 135.09 68.09 C 136.43 66.11 137.72 64.10 138.97 62.06 C 140.22 64.10 141.52 66.11 142.88 68.09 C 151.40 67.99 160.03 68.46 168.41 66.56 C 173.70 73.77 179.57 80.98 187.66 85.16 C 191.39 80.17 193.37 74.16 194.34 68.06 C 200.86 68.07 207.38 68.05 213.91 68.07 C 219.95 56.82 220.55 43.44 219.03 31.00 C 213.29 31.00 207.55 31.00 201.81 31.00 C 203.42 40.76 203.39 51.06 199.40 60.28 C 194.87 54.06 192.02 46.59 191.49 38.90 C 190.78 29.96 184.99 21.96 177.10 17.87 C 170.40 24.39 163.71 30.92 156.97 37.40 M 133.20 26.59 C 137.07 26.69 140.95 26.99 144.83 26.81 C 142.74 26.36 140.62 25.81 138.98 24.36 C 137.53 26.05 135.23 26.17 133.20 26.59 M 43.75 31.00 C 45.22 43.01 46.72 55.01 48.17 67.02 C 38.88 66.82 29.89 63.81 21.98 59.02 C 27.16 55.68 33.19 54.00 39.28 53.48 C 38.66 47.52 38.17 41.55 37.59 35.59 C 26.13 36.15 14.53 40.65 6.87 49.42 C 9.84 57.88 13.26 66.17 16.39 74.56 C 30.52 78.19 45.19 79.02 59.72 79.02 C 59.31 72.96 59.03 66.90 58.51 60.85 C 60.44 63.61 61.81 68.45 65.95 68.07 C 72.60 68.09 79.25 68.03 85.90 68.07 C 91.96 56.82 92.55 43.44 91.04 31.00 C 85.29 31.00 79.55 31.00 73.81 31.00 C 75.50 41.24 75.41 52.17 70.70 61.65 C 65.49 52.44 65.76 41.31 64.58 31.06 C 57.63 30.94 50.69 31.02 43.75 31.00 M 41.37 57.30 C 37.87 57.87 34.36 58.38 30.88 59.07 C 35.00 60.93 39.35 62.17 43.82 62.85 C 43.32 60.08 42.84 57.30 42.36 54.53 C 42.03 55.45 41.70 56.37 41.37 57.30 M 63.32 72.02 C 63.40 73.42 63.48 74.81 63.56 76.21 C 63.87 75.39 64.18 74.56 64.49 73.74 C 65.35 73.24 66.21 72.74 67.07 72.24 C 65.82 72.17 64.57 72.09 63.32 72.02 M 76.41 72.06 C 75.48 74.00 79.53 74.39 79.79 72.59 C 79.43 71.22 77.33 71.40 76.41 72.06 M 208.31 74.47 C 203.36 76.14 202.28 83.44 206.54 86.45 C 210.50 89.96 217.53 87.25 218.13 82.01 C 219.20 76.74 213.08 72.31 208.31 74.47 M 69.21 75.37 C 64.23 77.45 64.26 85.64 69.27 87.66 C 73.39 89.42 77.65 85.09 77.07 80.99 C 77.05 77.19 72.91 73.73 69.21 75.37 M 82.41 75.47 C 77.33 77.70 77.71 86.17 83.07 87.79 C 87.13 89.18 90.96 84.97 90.46 81.04 C 90.49 77.12 86.17 73.56 82.41 75.47 Z" />
<path fill="#ffffff" opacity="1.00" d=" M 224.89 16.90 C 229.58 15.55 234.40 14.67 239.14 13.54 C 241.82 12.70 245.11 14.45 245.31 17.41 C 247.47 27.16 249.78 37.08 249.37 47.13 C 249.68 42.52 250.75 37.61 254.35 34.39 C 261.01 27.55 272.73 27.04 280.42 32.42 C 288.89 38.62 289.74 51.17 285.37 60.07 C 284.26 61.40 283.15 62.72 282.06 64.06 C 280.20 65.24 278.27 66.30 276.31 67.29 C 271.30 68.57 266.00 68.88 261.08 67.04 C 255.80 65.32 251.14 60.88 250.30 55.23 C 250.37 60.68 250.47 66.16 249.82 71.57 C 249.73 73.20 248.39 74.23 247.40 75.36 C 244.96 75.84 242.55 76.51 240.17 77.23 C 236.77 77.49 233.37 78.10 229.95 77.90 C 227.12 77.70 225.44 74.64 225.73 72.03 C 226.57 55.24 225.53 38.30 222.08 21.84 C 221.36 19.73 222.65 17.30 224.89 16.90 M 225.88 20.73 C 229.98 38.19 230.41 56.25 229.81 74.10 C 235.26 73.55 240.78 73.07 245.97 71.16 C 246.85 53.08 245.52 34.86 241.17 17.26 C 236.07 18.36 230.95 19.45 225.88 20.73 M 263.40 33.57 C 252.13 36.50 249.79 52.84 257.57 60.43 C 263.41 65.36 272.78 65.46 278.87 60.91 C 284.47 56.11 285.11 47.37 282.28 40.91 C 279.19 33.94 270.31 31.33 263.40 33.57 Z" />
<path fill="#ffffff" opacity="1.00" d=" M 175.37 35.76 C 178.19 37.42 181.06 39.63 181.73 43.05 C 182.88 47.27 180.50 51.27 177.80 54.30 C 175.42 48.44 174.60 42.03 175.37 35.76 Z" />
<path fill="#ffffff" opacity="1.00" d=" M 266.32 44.34 C 269.49 42.81 273.78 45.38 273.01 49.09 C 273.19 53.40 266.79 54.41 264.69 51.19 C 263.35 48.99 263.76 45.48 266.32 44.34 M 268.29 48.20 C 268.90 48.88 268.90 48.88 268.29 48.20 Z" />
<path fill="#ffffff" opacity="1.00" d=" M 181.33 60.99 C 183.89 58.96 186.20 56.64 188.27 54.12 C 189.31 59.14 189.72 64.33 188.50 69.36 C 185.86 66.79 183.50 63.96 181.33 60.99 Z" />
</g>
<g id="#00ccffff">
<path fill="#00ccff" opacity="1.00" d=" M 34.32 9.47 C 39.11 7.32 45.22 11.77 44.13 17.04 C 43.50 22.28 36.46 24.96 32.52 21.43 C 28.28 18.41 29.38 11.12 34.32 9.47 Z" />
<path fill="#00ccff" opacity="1.00" d=" M 130.27 10.35 C 133.96 8.77 138.04 12.20 138.07 15.98 C 138.67 20.11 134.33 24.46 130.21 22.63 C 125.23 20.55 125.26 12.36 130.27 10.35 Z" />
<path fill="#00ccff" opacity="1.00" d=" M 143.33 10.51 C 147.08 8.53 151.46 12.06 151.45 15.99 C 151.99 19.94 148.13 24.21 144.05 22.78 C 138.75 21.15 138.33 12.79 143.33 10.51 Z" />
<path fill="#00ccff" opacity="1.00" d=" M 156.97 37.40 C 163.71 30.92 170.40 24.39 177.10 17.87 C 184.99 21.96 190.78 29.96 191.49 38.90 C 192.02 46.59 194.87 54.06 199.40 60.28 C 203.39 51.06 203.42 40.76 201.81 31.00 C 207.55 31.00 213.29 31.00 219.03 31.00 C 220.55 43.44 219.95 56.82 213.91 68.07 C 207.38 68.05 200.86 68.07 194.34 68.06 C 193.37 74.16 191.39 80.17 187.66 85.16 C 179.57 80.98 173.70 73.77 168.41 66.56 C 160.03 68.46 151.40 67.99 142.88 68.09 C 141.52 66.11 140.22 64.10 138.97 62.06 C 137.72 64.10 136.43 66.11 135.09 68.09 C 128.75 68.04 122.42 68.05 116.08 68.07 C 114.58 74.17 112.20 80.11 108.33 85.11 C 102.22 82.23 96.11 79.35 89.94 76.59 C 95.59 72.64 99.89 66.80 101.49 60.05 C 103.86 50.42 102.16 40.31 99.26 31.00 C 104.92 31.00 110.58 31.00 116.24 31.00 C 117.05 41.44 118.98 51.98 123.57 61.48 C 128.41 52.07 129.58 41.37 130.76 31.00 C 136.22 31.00 141.69 31.00 147.15 31.00 C 147.53 41.30 149.65 51.58 153.81 61.03 C 157.45 60.92 161.08 60.61 164.68 60.09 C 161.00 52.96 158.11 45.37 156.97 37.40 M 175.37 35.76 C 174.60 42.03 175.42 48.44 177.80 54.30 C 180.50 51.27 182.88 47.27 181.73 43.05 C 181.06 39.63 178.19 37.42 175.37 35.76 M 181.33 60.99 C 183.50 63.96 185.86 66.79 188.50 69.36 C 189.72 64.33 189.31 59.14 188.27 54.12 C 186.20 56.64 183.89 58.96 181.33 60.99 Z" />
<path fill="#00ccff" opacity="1.00" d=" M 43.75 31.00 C 50.69 31.02 57.63 30.94 64.58 31.06 C 65.76 41.31 65.49 52.44 70.70 61.65 C 75.41 52.17 75.50 41.24 73.81 31.00 C 79.55 31.00 85.29 31.00 91.04 31.00 C 92.55 43.44 91.96 56.82 85.90 68.07 C 79.25 68.03 72.60 68.09 65.95 68.07 C 61.81 68.45 60.44 63.61 58.51 60.85 C 59.03 66.90 59.31 72.96 59.72 79.02 C 45.19 79.02 30.52 78.19 16.39 74.56 C 13.26 66.17 9.84 57.88 6.87 49.42 C 14.53 40.65 26.13 36.15 37.59 35.59 C 38.17 41.55 38.66 47.52 39.28 53.48 C 33.19 54.00 27.16 55.68 21.98 59.02 C 29.89 63.81 38.88 66.82 48.17 67.02 C 46.72 55.01 45.22 43.01 43.75 31.00 Z" />
<path fill="#00ccff" opacity="1.00" d=" M 208.31 74.47 C 213.08 72.31 219.20 76.74 218.13 82.01 C 217.53 87.25 210.50 89.96 206.54 86.45 C 202.28 83.44 203.36 76.14 208.31 74.47 Z" />
<path fill="#00ccff" opacity="1.00" d=" M 69.21 75.37 C 72.91 73.73 77.05 77.19 77.07 80.99 C 77.65 85.09 73.39 89.42 69.27 87.66 C 64.26 85.64 64.23 77.45 69.21 75.37 Z" />
<path fill="#00ccff" opacity="1.00" d=" M 82.41 75.47 C 86.17 73.56 90.49 77.12 90.46 81.04 C 90.96 84.97 87.13 89.18 83.07 87.79 C 77.71 86.17 77.33 77.70 82.41 75.47 Z" />
</g>
<g id="#ffae00ff">
<path fill="#ffae00" opacity="1.00" d=" M 225.88 20.73 C 230.95 19.45 236.07 18.36 241.17 17.26 C 245.52 34.86 246.85 53.08 245.97 71.16 C 240.78 73.07 235.26 73.55 229.81 74.10 C 230.41 56.25 229.98 38.19 225.88 20.73 Z" />
<path fill="#ffae00" opacity="1.00" d=" M 263.40 33.57 C 270.31 31.33 279.19 33.94 282.28 40.91 C 285.11 47.37 284.47 56.11 278.87 60.91 C 272.78 65.46 263.41 65.36 257.57 60.43 C 249.79 52.84 252.13 36.50 263.40 33.57 M 266.32 44.34 C 263.76 45.48 263.35 48.99 264.69 51.19 C 266.79 54.41 273.19 53.40 273.01 49.09 C 273.78 45.38 269.49 42.81 266.32 44.34 Z" />
</g>
</svg>
