<?xml version="1.0" encoding="UTF-8" ?>
<!DOCTYPE svg PUBLIC "-//W3C//DTD SVG 1.1//EN" "http://www.w3.org/Graphics/SVG/1.1/DTD/svg11.dtd">
<svg width="296pt" height="99pt" viewBox="0 0 296 99" version="1.1" xmlns="http://www.w3.org/2000/svg">
<g id="#ffffffff">
<path fill="#ffffff" opacity="1.00" d=" M 26.36 12.84 C 28.51 4.49 40.76 2.33 45.83 9.16 C 48.70 12.64 48.43 17.34 47.27 21.42 L 46.71 21.48 C 45.76 23.38 44.34 25.13 42.16 25.63 L 42.84 26.19 C 41.24 26.41 39.63 26.65 38.10 27.23 C 30.76 27.58 23.84 20.16 26.36 12.84 M 34.28 9.39 C 29.59 10.99 28.24 17.74 31.93 21.02 C 35.75 25.14 43.67 22.67 44.20 16.98 C 45.26 11.62 39.12 7.30 34.28 9.39 Z" />
<path fill="#ffffff" opacity="1.00" d=" M 125.32 9.21 C 128.70 5.06 135.09 5.26 138.96 8.60 C 142.65 5.43 148.75 4.97 152.16 8.79 C 156.02 12.07 156.05 17.80 154.30 22.18 C 154.06 22.51 153.58 23.17 153.35 23.50 L 152.58 23.52 L 152.60 24.61 L 151.50 24.60 L 151.40 25.80 L 150.07 25.02 L 150.83 26.24 C 149.75 26.41 147.58 26.76 146.50 26.93 C 147.42 27.15 148.34 27.37 149.26 27.58 C 150.14 28.91 151.24 30.22 151.20 31.91 C 151.58 40.42 153.22 48.85 156.26 56.80 C 156.89 56.82 158.16 56.84 158.80 56.85 C 156.05 51.15 154.25 45.03 153.22 38.80 C 152.87 37.01 153.45 35.07 154.89 33.92 C 160.78 28.09 166.73 22.31 172.66 16.51 C 174.34 14.76 177.07 13.59 179.42 14.69 C 185.40 17.83 190.30 23.00 193.01 29.20 C 196.16 36.17 195.29 44.09 198.29 51.13 C 198.97 45.10 199.04 39.00 198.04 33.00 C 197.18 30.06 199.66 26.77 202.78 27.04 C 208.23 27.02 213.70 26.85 219.15 27.13 C 221.56 27.25 223.01 29.68 223.13 31.89 C 224.53 42.65 223.74 53.84 220.19 64.14 C 219.77 65.22 219.43 66.33 219.18 67.47 L 218.22 67.49 C 218.30 67.99 218.47 68.98 218.56 69.48 L 217.27 69.32 L 217.55 70.46 C 217.08 70.59 216.14 70.86 215.67 70.99 C 221.77 73.24 223.30 80.83 221.26 86.42 L 220.70 86.47 C 219.27 89.97 215.52 91.39 212.14 92.27 C 206.86 92.21 201.51 88.90 200.21 83.59 C 199.19 80.06 200.50 76.39 202.63 73.55 C 203.37 73.17 204.11 72.78 204.85 72.39 C 202.40 72.26 199.95 72.25 197.51 72.26 C 196.89 77.38 194.35 81.89 192.22 86.48 L 191.40 86.33 L 191.43 87.53 L 190.27 87.46 L 190.62 88.34 C 188.95 88.62 187.14 89.42 185.54 88.41 C 177.88 84.63 172.05 78.03 167.05 71.27 C 158.02 72.07 148.70 73.28 139.75 71.28 C 139.55 70.70 139.16 69.55 138.96 68.97 C 138.79 69.57 138.47 70.77 138.30 71.37 C 132.05 73.19 125.41 71.83 118.99 72.28 C 118.19 75.71 116.89 79.02 115.16 82.09 C 114.92 82.68 114.46 83.87 114.23 84.46 L 113.03 84.63 C 113.16 85.00 113.40 85.72 113.53 86.08 C 112.43 86.47 111.63 87.20 111.13 88.26 C 110.49 88.48 109.22 88.92 108.59 89.14 C 103.59 87.69 99.03 85.11 94.36 82.88 C 94.03 84.44 93.66 85.98 93.31 87.53 L 92.30 87.42 L 92.66 88.50 L 91.56 88.52 L 91.61 89.61 L 90.50 89.59 L 90.41 90.79 L 89.10 90.06 L 89.80 91.25 C 85.74 92.26 80.51 92.57 77.73 88.80 C 77.66 89.27 77.51 90.20 77.43 90.67 L 76.00 89.96 L 76.77 91.18 C 75.18 91.40 73.58 91.67 72.06 92.20 C 66.29 92.19 61.69 87.38 61.21 81.75 C 61.00 82.13 60.60 82.90 60.40 83.28 C 56.24 83.11 52.08 83.30 47.92 83.10 C 37.10 82.12 26.09 81.49 15.61 78.33 C 13.61 77.80 12.61 75.85 11.96 74.06 C 9.53 67.77 7.18 61.45 4.70 55.18 C 3.96 53.23 3.12 51.26 2.97 49.15 C 3.88 46.05 6.78 44.11 8.95 41.91 C 16.61 35.75 26.33 32.47 36.06 31.75 C 37.33 31.56 38.50 32.16 39.65 32.61 C 39.77 29.98 41.20 27.63 43.73 26.73 C 50.46 27.38 57.24 26.70 63.98 27.11 C 66.16 27.30 68.39 28.75 68.47 31.12 C 69.24 37.84 69.84 44.58 70.59 51.30 C 70.89 45.19 71.01 39.04 70.04 32.99 C 69.30 30.40 71.18 27.24 73.97 27.12 C 79.42 26.87 84.89 27.00 90.34 27.04 C 92.68 26.91 94.77 28.76 94.97 31.09 C 96.64 42.09 95.80 53.58 92.19 64.13 C 91.78 65.24 91.43 66.36 91.15 67.51 L 90.19 67.50 C 90.29 67.99 90.49 68.98 90.59 69.47 L 89.67 69.30 C 89.51 71.24 87.14 70.91 85.86 71.55 C 87.21 71.55 88.57 71.59 89.92 71.64 C 94.19 67.86 97.18 62.68 98.10 57.03 C 99.48 48.66 97.87 40.17 95.63 32.09 C 94.72 29.29 97.54 27.20 100.06 27.11 C 105.12 26.88 110.19 27.00 115.25 27.04 C 118.05 26.89 120.38 29.38 120.35 32.12 C 120.69 38.87 122.46 45.40 123.51 52.04 C 124.79 45.21 126.06 38.38 126.74 31.46 C 126.85 29.00 129.04 27.42 131.26 26.92 C 123.09 26.13 119.61 14.81 125.32 9.21 M 130.19 10.28 C 125.15 12.37 125.14 20.57 130.15 22.71 C 133.89 24.29 138.16 20.98 138.09 17.07 C 138.82 12.82 134.39 8.55 130.19 10.28 M 143.32 10.41 C 138.53 12.62 138.54 20.45 143.37 22.61 C 146.84 24.26 150.93 21.57 151.43 17.92 C 152.70 13.38 147.94 8.15 143.32 10.41 M 156.94 37.30 C 157.89 45.30 160.93 52.86 164.53 60.00 C 161.02 60.53 157.47 60.84 153.92 61.00 C 149.69 51.58 147.66 41.29 147.22 31.00 C 141.72 30.98 136.22 31.04 130.72 30.96 C 129.47 41.28 128.34 51.93 123.58 61.35 C 119.00 51.85 117.20 41.33 116.26 30.92 C 110.56 31.07 104.85 30.97 99.15 31.00 C 102.28 40.84 103.95 51.71 100.89 61.78 C 99.10 67.88 94.91 72.90 89.86 76.62 C 96.17 79.35 102.22 82.65 108.66 85.08 C 112.21 79.93 114.72 74.15 116.18 68.08 C 122.45 67.97 128.73 68.29 134.99 67.97 C 136.71 66.38 137.72 64.20 138.96 62.24 C 140.18 64.24 141.47 66.20 142.83 68.12 C 151.31 67.91 159.93 68.65 168.25 66.61 C 173.74 73.71 179.43 81.21 187.72 85.20 C 191.48 80.24 193.48 74.23 194.35 68.12 C 200.88 68.05 207.41 68.10 213.94 68.08 C 220.03 56.87 220.75 43.41 219.05 30.99 C 213.29 31.01 207.54 31.00 201.78 31.00 C 203.24 40.70 203.33 50.91 199.41 60.09 C 194.90 53.97 192.09 46.56 191.60 38.97 C 190.86 29.99 185.08 21.81 177.06 17.81 C 170.32 24.28 163.70 30.86 156.94 37.30 M 138.74 23.68 L 138.63 25.34 C 136.76 25.78 134.89 26.20 133.01 26.55 C 136.99 26.67 140.96 26.98 144.94 26.92 C 143.16 26.47 141.41 25.88 139.68 25.28 C 139.44 24.88 138.97 24.08 138.74 23.68 M 43.71 31.00 C 45.09 43.00 46.61 54.98 48.12 66.96 C 38.97 66.65 30.02 63.85 22.25 59.03 C 27.28 55.69 33.25 54.01 39.24 53.65 C 38.91 47.61 38.16 41.62 37.70 35.59 C 26.63 36.02 15.11 40.13 7.68 48.63 C 6.46 49.66 7.38 51.13 7.75 52.32 C 10.66 59.73 13.45 67.19 16.33 74.62 C 30.51 78.26 45.24 79.20 59.83 78.99 C 59.52 73.28 58.93 67.58 58.78 61.86 C 60.46 63.86 61.50 66.91 63.99 67.96 C 71.30 68.28 78.63 67.98 85.94 68.09 C 92.02 56.88 92.76 43.41 91.05 31.00 C 85.29 31.00 79.54 31.00 73.79 31.00 C 75.31 41.19 75.34 52.01 70.73 61.46 C 68.90 59.23 68.35 56.32 67.60 53.61 C 65.85 46.20 65.24 38.59 64.64 31.02 C 57.66 30.98 50.69 31.01 43.71 31.00 M 41.83 56.24 C 38.66 57.26 35.36 57.79 32.04 58.08 C 31.57 58.58 30.63 59.58 30.16 60.08 C 30.61 59.96 31.53 59.72 31.98 59.60 C 35.76 61.26 39.80 62.12 43.84 62.86 C 43.30 60.08 42.81 57.29 42.44 54.48 C 42.29 54.92 41.99 55.80 41.83 56.24 M 63.31 72.03 C 63.39 73.42 63.48 74.82 63.55 76.21 C 63.79 75.59 64.27 74.34 64.51 73.72 C 65.37 73.23 66.22 72.74 67.07 72.24 C 65.82 72.17 64.56 72.10 63.31 72.03 M 76.40 72.03 C 75.51 73.97 79.47 74.40 79.79 72.60 C 79.47 71.21 77.33 71.41 76.40 72.03 M 208.30 74.38 C 203.34 76.03 202.20 83.38 206.42 86.46 C 210.39 90.02 217.66 87.38 218.19 82.00 C 219.27 76.64 213.14 72.31 208.30 74.38 M 69.18 75.29 C 64.13 77.40 64.15 85.60 69.18 87.72 C 73.39 89.46 77.80 85.20 77.09 80.95 C 77.18 77.04 72.92 73.72 69.18 75.29 M 82.40 75.36 C 77.27 77.62 77.61 86.22 83.04 87.85 C 87.61 89.36 91.60 84.22 90.41 79.98 C 89.85 76.38 85.84 73.79 82.40 75.36 Z" />
<path fill="#ffffff" opacity="1.00" d=" M 230.93 15.39 C 235.39 14.98 241.04 11.17 244.63 15.38 C 247.45 25.70 249.62 36.44 249.38 47.19 C 249.73 43.04 250.39 38.61 253.37 35.44 C 258.51 29.21 267.74 27.32 275.23 29.88 C 281.70 31.63 286.49 37.61 287.49 44.15 C 288.81 49.67 287.37 55.29 285.32 60.42 L 284.44 60.38 L 284.58 61.24 C 283.17 62.69 281.72 64.12 280.16 65.41 C 279.14 65.81 278.13 66.26 277.15 66.74 C 271.25 69.18 264.46 68.77 258.73 66.08 C 254.54 63.96 250.97 60.09 250.40 55.28 C 249.81 61.88 251.60 69.17 248.18 75.19 C 246.80 75.36 245.43 75.60 244.17 76.18 C 242.80 76.42 241.45 76.70 240.16 77.20 C 236.78 77.47 233.40 78.08 230.01 77.91 C 227.17 77.74 225.44 74.68 225.73 72.05 C 226.61 54.99 225.44 37.79 221.96 21.06 C 221.55 16.21 227.67 16.43 230.93 15.39 M 225.96 20.55 C 229.42 38.13 230.77 56.13 229.70 74.01 C 235.20 73.80 240.77 73.23 245.94 71.21 C 247.05 53.08 245.55 34.78 241.28 17.12 C 236.15 18.19 231.06 19.38 225.96 20.55 M 263.38 33.48 C 252.25 36.33 249.87 52.13 256.96 60.01 C 264.14 66.89 278.88 65.65 282.74 55.73 C 284.80 49.88 284.46 42.64 280.35 37.73 C 276.29 32.98 269.19 31.72 263.38 33.48 Z" />
<path fill="#ffffff" opacity="1.00" d=" M 175.48 35.91 C 178.10 37.45 180.69 39.48 181.50 42.57 C 182.98 46.76 180.66 51.06 177.82 54.06 C 175.54 48.32 174.59 42.04 175.48 35.91 Z" />
<path fill="#ffffff" opacity="1.00" d=" M 266.34 44.46 C 269.66 42.45 274.34 46.28 272.83 49.95 C 272.04 53.83 266.03 54.07 264.51 50.61 C 263.31 48.50 264.06 45.46 266.34 44.46 M 268.14 48.18 C 268.74 48.82 268.74 48.82 268.14 48.18 Z" />
<path fill="#ffffff" opacity="1.00" d=" M 181.48 60.99 C 183.91 59.02 186.12 56.82 188.19 54.47 C 189.32 59.29 189.61 64.32 188.43 69.15 C 185.86 66.66 183.55 63.91 181.48 60.99 Z" />
</g>
<g id="#abababff">
<path fill="#ababab" opacity="1.00" d=" M 34.28 9.39 C 39.12 7.30 45.26 11.62 44.20 16.98 C 43.67 22.67 35.75 25.14 31.93 21.02 C 28.24 17.74 29.59 10.99 34.28 9.39 Z" />
<path fill="#ababab" opacity="1.00" d=" M 130.19 10.28 C 134.39 8.55 138.82 12.82 138.09 17.07 C 138.16 20.98 133.89 24.29 130.15 22.71 C 125.14 20.57 125.15 12.37 130.19 10.28 Z" />
<path fill="#ababab" opacity="1.00" d=" M 143.32 10.41 C 147.94 8.15 152.70 13.38 151.43 17.92 C 150.93 21.57 146.84 24.26 143.37 22.61 C 138.54 20.45 138.53 12.62 143.32 10.41 Z" />
<path fill="#ababab" opacity="1.00" d=" M 225.96 20.55 C 231.06 19.38 236.15 18.19 241.28 17.12 C 245.55 34.78 247.05 53.08 245.94 71.21 C 240.77 73.23 235.20 73.80 229.70 74.01 C 230.77 56.13 229.42 38.13 225.96 20.55 Z" />
<path fill="#ababab" opacity="1.00" d=" M 156.94 37.30 C 163.70 30.86 170.32 24.28 177.06 17.81 C 185.08 21.81 190.86 29.99 191.60 38.97 C 192.09 46.56 194.90 53.97 199.41 60.09 C 203.33 50.91 203.24 40.70 201.78 31.00 C 207.54 31.00 213.29 31.01 219.05 30.99 C 220.75 43.41 220.03 56.87 213.94 68.08 C 207.41 68.10 200.88 68.05 194.35 68.12 C 193.48 74.23 191.48 80.24 187.72 85.20 C 179.43 81.21 173.74 73.71 168.25 66.61 C 159.93 68.65 151.31 67.91 142.83 68.12 C 141.47 66.20 140.18 64.24 138.96 62.24 C 137.72 64.20 136.71 66.38 134.99 67.97 C 128.73 68.29 122.45 67.97 116.18 68.08 C 114.72 74.15 112.21 79.93 108.66 85.08 C 102.22 82.65 96.17 79.35 89.86 76.62 C 94.91 72.90 99.10 67.88 100.89 61.78 C 103.95 51.71 102.28 40.84 99.15 31.00 C 104.85 30.97 110.56 31.07 116.26 30.92 C 117.20 41.33 119.00 51.85 123.58 61.35 C 128.34 51.93 129.47 41.28 130.72 30.96 C 136.22 31.04 141.72 30.98 147.22 31.00 C 147.66 41.29 149.69 51.58 153.92 61.00 C 157.47 60.84 161.02 60.53 164.53 60.00 C 160.93 52.86 157.89 45.30 156.94 37.30 M 175.48 35.91 C 174.59 42.04 175.54 48.32 177.82 54.06 C 180.66 51.06 182.98 46.76 181.50 42.57 C 180.69 39.48 178.10 37.45 175.48 35.91 M 181.48 60.99 C 183.55 63.91 185.86 66.66 188.43 69.15 C 189.61 64.32 189.32 59.29 188.19 54.47 C 186.12 56.82 183.91 59.02 181.48 60.99 Z" />
<path fill="#ababab" opacity="1.00" d=" M 43.71 31.00 C 50.69 31.01 57.66 30.98 64.64 31.02 C 65.24 38.59 65.85 46.20 67.60 53.61 C 68.35 56.32 68.90 59.23 70.73 61.46 C 75.34 52.01 75.31 41.19 73.79 31.00 C 79.54 31.00 85.29 31.00 91.05 31.00 C 92.76 43.41 92.02 56.88 85.94 68.09 C 78.63 67.98 71.30 68.28 63.99 67.96 C 61.50 66.91 60.46 63.86 58.78 61.86 C 58.93 67.58 59.52 73.28 59.83 78.99 C 45.24 79.20 30.51 78.26 16.33 74.62 C 13.45 67.19 10.66 59.73 7.75 52.32 C 7.38 51.13 6.46 49.66 7.68 48.63 C 15.11 40.13 26.63 36.02 37.70 35.59 C 38.16 41.62 38.91 47.61 39.24 53.65 C 33.25 54.01 27.28 55.69 22.25 59.03 C 30.02 63.85 38.97 66.65 48.12 66.96 C 46.61 54.98 45.09 43.00 43.71 31.00 Z" />
<path fill="#ababab" opacity="1.00" d=" M 263.38 33.48 C 269.19 31.72 276.29 32.98 280.35 37.73 C 284.46 42.64 284.80 49.88 282.74 55.73 C 278.88 65.65 264.14 66.89 256.96 60.01 C 249.87 52.13 252.25 36.33 263.38 33.48 M 266.34 44.46 C 264.06 45.46 263.31 48.50 264.51 50.61 C 266.03 54.07 272.04 53.83 272.83 49.95 C 274.34 46.28 269.66 42.45 266.34 44.46 Z" />
<path fill="#ababab" opacity="1.00" d=" M 32.04 58.08 C 35.36 57.79 38.66 57.26 41.83 56.24 C 41.73 56.52 41.52 57.07 41.41 57.35 C 39.02 58.06 36.53 58.31 34.08 58.73 C 33.56 58.95 32.51 59.38 31.98 59.60 C 31.53 59.72 30.61 59.96 30.16 60.08 C 30.63 59.58 31.57 58.58 32.04 58.08 Z" />
<path fill="#ababab" opacity="1.00" d=" M 208.30 74.38 C 213.14 72.31 219.27 76.64 218.19 82.00 C 217.66 87.38 210.39 90.02 206.42 86.46 C 202.20 83.38 203.34 76.03 208.30 74.38 Z" />
<path fill="#ababab" opacity="1.00" d=" M 69.18 75.29 C 72.92 73.72 77.18 77.04 77.09 80.95 C 77.80 85.20 73.39 89.46 69.18 87.72 C 64.15 85.60 64.13 77.40 69.18 75.29 Z" />
<path fill="#ababab" opacity="1.00" d=" M 82.40 75.36 C 85.84 73.79 89.85 76.38 90.41 79.98 C 91.60 84.22 87.61 89.36 83.04 87.85 C 77.61 86.22 77.27 77.62 82.40 75.36 Z" />
</g>
</svg>
