<?xml version="1.0" encoding="iso-8859-1"?>
<!-- Generator: Adobe Illustrator 16.0.0, SVG Export Plug-In . SVG Version: 6.00 Build 0)  -->
<!DOCTYPE svg PUBLIC "-//W3C//DTD SVG 1.1//EN" "http://www.w3.org/Graphics/SVG/1.1/DTD/svg11.dtd">
<svg version="1.1" id="Capa_1" xmlns="http://www.w3.org/2000/svg" xmlns:xlink="http://www.w3.org/1999/xlink" x="0px" y="0px"
	 width="792.012px" height="792.012px" viewBox="0 0 792.012 792.012" style="enable-background:new 0 0 792.012 792.012;"
	 xml:space="preserve">
<g>
	<path d="M562.073,792.012c-15.479,0-29.91-5.907-40.641-16.638L183.44,437.382c-10.73-10.73-14.693-31.48-15.927-39.894
		c-0.336-18.32,5.384-32.864,15.927-43.445L521.433,16.014c22.208-22.097,61.578-21.2,84.609,1.907
		c11.853,11.814,18.433,27.443,18.471,43.894c0,15.479-5.908,29.911-16.639,40.641L381.637,328.769
		c-15.554,18.021-25.013,42.473-25.013,66.065c0,24.041,9.945,50.399,25.91,68.832l225.34,225.303
		c10.73,10.693,16.639,25.125,16.639,40.604c0,16.264-6.768,32.266-18.508,44.006C594.19,785.469,578.562,792.012,562.073,792.012z
		 M562.073,36.802c-5.458,0-10.543,2.019-14.17,5.646L209.912,380.477c-4.337,4.337-5.197,10.095-5.16,14.133
		c0.897,4.972,3.664,14.282,5.459,16.675L547.866,748.94c7.926,7.889,22.807,7.104,31.668-1.795
		c4.823-4.823,7.59-11.217,7.59-17.572c0-5.459-2.02-10.507-5.646-14.133L355.203,489.128
		c-22.882-26.247-35.968-61.131-35.968-94.294c0-32.491,12.787-65.841,35.07-91.527L581.44,76.022
		c3.664-3.664,5.684-8.674,5.684-14.17c0-6.356-2.729-12.75-7.516-17.498C574.748,39.457,568.505,36.802,562.073,36.802z"/>
</g>
<g>
</g>
<g>
</g>
<g>
</g>
<g>
</g>
<g>
</g>
<g>
</g>
<g>
</g>
<g>
</g>
<g>
</g>
<g>
</g>
<g>
</g>
<g>
</g>
<g>
</g>
<g>
</g>
<g>
</g>
</svg>
