<?xml version="1.0" ?><svg id="Layer_1" style="enable-background:new 0 0 128 128;" version="1.1" viewBox="0 0 128 128" xml:space="preserve" xmlns="http://www.w3.org/2000/svg" xmlns:xlink="http://www.w3.org/1999/xlink"><style type="text/css">
	.st0{fill:#7166f1;}
	.st1{fill:#FFFFFF;}
</style><path class="st1" d="M64,24c-22.1,0-40,17.9-40,40s17.9,40,40,40s40-17.9,40-40S86.1,24,64,24z M82.7,48.1l-18,18  c-0.4,0.4-1,0.4-1.4,0l-10-10c-0.4-0.4-0.4-1,0-1.4l1.4-1.4c0.4-0.4,1-0.4,1.4,0l7.9,7.9l15.9-15.9c0.4-0.4,1-0.4,1.4,0l1.4,1.4  C83.1,47.1,83.1,47.7,82.7,48.1z"/></svg>